HIERARCHY
ROOT Hips
{
	OFFSET -14.64140 90.27770 -84.91600
	CHANNELS 6 Xposition Yposition Zposition Zrotation Xrotation Yrotation
	JOINT Spine
	{
		OFFSET 0.00000 13.20850 -1.60436
		CHANNELS 3 Zrotation Xrotation Yrotation
		JOINT Spine1
		{
			OFFSET 0.00000 8.61716 0.00000
			CHANNELS 3 Zrotation Xrotation Yrotation
			JOINT Spine2
			{
				OFFSET 0.00000 8.61717 0.00000
				CHANNELS 3 Zrotation Xrotation Yrotation
				JOINT Spine3
				{
					OFFSET 0.00000 8.61717 0.00000
					CHANNELS 3 Zrotation Xrotation Yrotation
					JOINT Neck
					{
						OFFSET 0.00000 11.07920 1.10792
						CHANNELS 3 Zrotation Xrotation Yrotation
						JOINT Neck1
						{
							OFFSET 0.00000 7.08032 0.00000
							CHANNELS 3 Zrotation Xrotation Yrotation
							JOINT Head
							{
								OFFSET 0.00000 7.08031 0.00000
								CHANNELS 3 Zrotation Xrotation Yrotation
								End site
								{
									OFFSET 0.00000 0.00000 0.00000
								}
							}
						}
					}
					JOINT RightShoulder
					{
						OFFSET -0.01000 7.91373 5.19711
						CHANNELS 3 Zrotation Xrotation Yrotation
						JOINT RightArm
						{
							OFFSET -18.41580 0.00000 0.00000
							CHANNELS 3 Zrotation Xrotation Yrotation
							JOINT RightForeArm
							{
								OFFSET -29.11090 0.00000 0.00000
								CHANNELS 3 Zrotation Xrotation Yrotation
								JOINT RightHand
								{
									OFFSET -24.65040 0.00000 0.00000
									CHANNELS 3 Zrotation Xrotation Yrotation
									JOINT RightHandThumb1
									{
										OFFSET -5.35114 -0.85590 3.97906
										CHANNELS 3 Zrotation Xrotation Yrotation
										JOINT RightHandThumb2
										{
											OFFSET -4.52789 0.00000 0.00000
											CHANNELS 3 Zrotation Xrotation Yrotation
											JOINT RightHandThumb3
											{
												OFFSET -2.46976 0.00000 0.00000
												CHANNELS 3 Zrotation Xrotation Yrotation
												End site
												{
													OFFSET 0.00000 0.00000 0.00000
												}
											}
										}
									}
									JOINT RightHandIndex1
									{
										OFFSET -14.26970 0.00000 2.88139
										CHANNELS 3 Zrotation Xrotation Yrotation
										JOINT RightHandIndex2
										{
											OFFSET -5.48836 0.00000 0.00000
											CHANNELS 3 Zrotation Xrotation Yrotation
											JOINT RightHandIndex3
											{
												OFFSET -3.01859 0.00000 0.00000
												CHANNELS 3 Zrotation Xrotation Yrotation
												End site
												{
													OFFSET 0.00000 0.00000 0.00000
												}
											}
										}
									}
									JOINT RightHandMiddle1
									{
										OFFSET -14.26970 0.00000 -0.09147
										CHANNELS 3 Zrotation Xrotation Yrotation
										JOINT RightHandMiddle2
										{
											OFFSET -6.17441 0.00000 0.00000
											CHANNELS 3 Zrotation Xrotation Yrotation
											JOINT RightHandMiddle3
											{
												OFFSET -3.56743 0.00000 0.00000
												CHANNELS 3 Zrotation Xrotation Yrotation
												End site
												{
													OFFSET 0.00000 0.00000 0.00000
												}
											}
										}
									}
									JOINT RightHandRing1
									{
										OFFSET -12.69180 0.00000 -3.06433
										CHANNELS 3 Zrotation Xrotation Yrotation
										JOINT RightHandRing2
										{
											OFFSET -5.62556 0.00000 0.00000
											CHANNELS 3 Zrotation Xrotation Yrotation
											JOINT RightHandRing3
											{
												OFFSET -3.56744 0.00000 0.00000
												CHANNELS 3 Zrotation Xrotation Yrotation
												End site
												{
													OFFSET 0.00000 0.00000 0.00000
												}
											}
										}
									}
									JOINT RightHandPinky1
									{
										OFFSET -11.11390 0.00000 -6.03719
										CHANNELS 3 Zrotation Xrotation Yrotation
										JOINT RightHandPinky2
										{
											OFFSET -4.52789 0.00000 0.00000
											CHANNELS 3 Zrotation Xrotation Yrotation
											JOINT RightHandPinky3
											{
												OFFSET -2.46976 0.00000 0.00000
												CHANNELS 3 Zrotation Xrotation Yrotation
												End site
												{
													OFFSET 0.00000 0.00000 0.00000
												}
											}
										}
									}
								}
							}
						}
					}
					JOINT LeftShoulder
					{
						OFFSET 0.01000 7.91373 5.19711
						CHANNELS 3 Zrotation Xrotation Yrotation
						JOINT LeftArm
						{
							OFFSET 18.41580 0.00000 0.00000
							CHANNELS 3 Zrotation Xrotation Yrotation
							JOINT LeftForeArm
							{
								OFFSET 29.11090 0.00000 0.00000
								CHANNELS 3 Zrotation Xrotation Yrotation
								JOINT LeftHand
								{
									OFFSET 24.65040 0.00000 0.00000
									CHANNELS 3 Zrotation Xrotation Yrotation
									JOINT LeftHandThumb1
									{
										OFFSET 5.35114 -0.85590 3.97906
										CHANNELS 3 Zrotation Xrotation Yrotation
										JOINT LeftHandThumb2
										{
											OFFSET 4.52789 0.00000 0.00000
											CHANNELS 3 Zrotation Xrotation Yrotation
											JOINT LeftHandThumb3
											{
												OFFSET 2.46977 0.00000 0.00000
												CHANNELS 3 Zrotation Xrotation Yrotation
												End site
												{
													OFFSET 0.00000 0.00000 0.00000
												}
											}
										}
									}
									JOINT LeftHandIndex1
									{
										OFFSET 14.26970 0.00000 2.88139
										CHANNELS 3 Zrotation Xrotation Yrotation
										JOINT LeftHandIndex2
										{
											OFFSET 5.48836 0.00000 0.00000
											CHANNELS 3 Zrotation Xrotation Yrotation
											JOINT LeftHandIndex3
											{
												OFFSET 3.01859 0.00000 0.00000
												CHANNELS 3 Zrotation Xrotation Yrotation
												End site
												{
													OFFSET 0.00000 0.00000 0.00000
												}
											}
										}
									}
									JOINT LeftHandMiddle1
									{
										OFFSET 14.26970 0.00000 -0.09147
										CHANNELS 3 Zrotation Xrotation Yrotation
										JOINT LeftHandMiddle2
										{
											OFFSET 6.17440 0.00000 0.00000
											CHANNELS 3 Zrotation Xrotation Yrotation
											JOINT LeftHandMiddle3
											{
												OFFSET 3.56744 0.00000 0.00000
												CHANNELS 3 Zrotation Xrotation Yrotation
												End site
												{
													OFFSET 0.00000 0.00000 0.00000
												}
											}
										}
									}
									JOINT LeftHandRing1
									{
										OFFSET 12.69180 0.00000 -3.06433
										CHANNELS 3 Zrotation Xrotation Yrotation
										JOINT LeftHandRing2
										{
											OFFSET 5.62556 0.00000 0.00000
											CHANNELS 3 Zrotation Xrotation Yrotation
											JOINT LeftHandRing3
											{
												OFFSET 3.56744 0.00000 0.00000
												CHANNELS 3 Zrotation Xrotation Yrotation
												End site
												{
													OFFSET 0.00000 0.00000 0.00000
												}
											}
										}
									}
									JOINT LeftHandPinky1
									{
										OFFSET 11.11390 0.00000 -6.03719
										CHANNELS 3 Zrotation Xrotation Yrotation
										JOINT LeftHandPinky2
										{
											OFFSET 4.52789 0.00000 0.00000
											CHANNELS 3 Zrotation Xrotation Yrotation
											JOINT LeftHandPinky3
											{
												OFFSET 2.46976 0.00000 0.00000
												CHANNELS 3 Zrotation Xrotation Yrotation
												End site
												{
													OFFSET 0.00000 0.00000 0.00000
												}
											}
										}
									}
								}
							}
						}
					}
					JOINT pCube4
					{
						OFFSET 0.00000 10.91090 1.10792
						CHANNELS 3 Zrotation Xrotation Yrotation
						End site
						{
							OFFSET 0.00000 0.00000 0.00000
						}
					}
				}
			}
		}
	}
	JOINT RightUpLeg
	{
		OFFSET -9.98441 0.00000 0.00000
		CHANNELS 3 Zrotation Xrotation Yrotation
		JOINT RightLeg
		{
			OFFSET 0.00000 -42.11790 0.00000
			CHANNELS 3 Zrotation Xrotation Yrotation
			JOINT RightFoot
			{
				OFFSET 0.00000 -45.00020 -0.00001
				CHANNELS 3 Zrotation Xrotation Yrotation
				JOINT RightForeFoot
				{
					OFFSET 0.00000 -3.74820 0.00000
					CHANNELS 3 Zrotation Xrotation Yrotation
					JOINT RightToeBase
					{
						OFFSET 0.00000 0.06325 14.43120
						CHANNELS 3 Zrotation Xrotation Yrotation
						End site
						{
							OFFSET 0.00000 0.00000 0.00000
						}
					}
				}
			}
		}
	}
	JOINT LeftUpLeg
	{
		OFFSET 9.98441 0.00000 0.00000
		CHANNELS 3 Zrotation Xrotation Yrotation
		JOINT LeftLeg
		{
			OFFSET 0.00000 -42.11800 0.00000
			CHANNELS 3 Zrotation Xrotation Yrotation
			JOINT LeftFoot
			{
				OFFSET 0.00000 -45.00070 0.00000
				CHANNELS 3 Zrotation Xrotation Yrotation
				JOINT LeftForeFoot
				{
					OFFSET 0.00000 -3.74824 0.00000
					CHANNELS 3 Zrotation Xrotation Yrotation
					JOINT LeftToeBase
					{
						OFFSET 0.00000 0.06325 14.43110
						CHANNELS 3 Zrotation Xrotation Yrotation
						End site
						{
							OFFSET 0.00000 0.00000 0.00000
						}
					}
				}
			}
		}
	}
}
MOTION
Frames: 4
Frame Time: 0.050000
-0.008001494809748735 0.03560222058821839 0.005160554853127303 -0.013491389971419977 -0.020297526136187072 -0.009835473920874051 -1.6947174035347747 1.0871973310653091 -1.0240930684244625 -0.8098567200234569 3.601410024703795 0.379120743091638 -1.1727925498722347 -1.8474237824375686 -0.739545953632046 0.13751685229571808 -0.31186585617070156 -0.7051319413559893 0.5792153191463936 11.95376443129855 -2.2011242666731095 0.28177296182027667 -0.5928166304778203 -6.36752263100803 0.9566684167056874 -15.938651391912883 -0.48183310809024193 -5.495856833621743 2.048824367420485 -15.957761121821727 69.99563225474833 -5.124441360252892 4.641789197449354 31.07509682650728 9.528093366510385 89.90130907426101 20.380412362951507 -0.3730858658854685 -3.816559601626023 4.523098479818398 -0.11337552834758716 -1.5813554241838508 0.0204754675447626 0.01608768141017982 -56.23283495437859 -0.04007427255732828 -0.0013614599711584228 -56.22655507538314 -38.78105714901145 -0.03707364462085849 -0.033846454981176714 0.03719648467495798 -0.009912782262238918 -0.01283286204722527 0.019748031676205268 0.008834133009073437 -0.007551182911032451 -36.69485780896924 0.048962866559332206 -0.03119794281122998 0.005900334432551829 -0.026044209675590624 -0.03828951189842608 -0.028106875248768662 0.03190123004332877 -0.013492607403488765 -19.756424138159364 0.04165811501681327 -0.00915056131741077 -0.04266024816869745 0.009947552748039505 0.029192561154692903 0.032422052569116615 0.038569361546304914 -0.021257903032354586 24.02834879030581 0.029666950590641637 0.01606115478405723 28.89387820143806 -0.025579203530602352 0.017131642110865875 28.863733144294198 -0.03842494446220493 0.0044340953140702 5.402448712398033 1.478531958941051 13.78277282619196 -67.4350497743179 17.31365509002636 -4.474329553879904 4.105472672907089 -5.237556086357948 -78.23840571613904 -13.017364740434655 -0.6980439406295066 0.08537209479669444 -0.5012436176152366 0.11330973472202067 -8.137576416894666 -0.005225529097802085 0.008903582738224981 44.596088094442145 0.013641921594228865 0.033648004249163074 44.54243161200908 12.449304393999283 -0.00898012325752058 -0.037914239563892255 0.040277401963603236 -0.03444226856188551 -0.00454740481155553 -0.03057485385018062 0.03147126092378898 0.03677756108463259 11.147198687553372 0.029176767327280154 0.04947007975119356 -0.017227611748426807 -0.03222034243438308 0.0027939569676383694 0.02383194170413369 0.037712052871342716 -0.01768564550683264 4.770883945831937 0.014099219762102794 0.03691299082427686 -0.039472741770439246 0.032119800268152664 0.005202723459958464 -0.03266799594695354 0.020739284227985197 -0.005024124923354494 -5.631577051910544 -0.027819800972948436 0.026865599325806556 -6.76402532566842 -0.017194730364708897 -0.03776898670941567 -6.709902537054689 -0.026620347783960642 0.014252839045050394 0.03458872662268226 0.0028472574410175317 -0.04393992702215175 8.046356113479224 3.4706698770950193 -19.208306416807662 -0.02933844935921091 10.434332520370488 -0.020780924729005928 -5.602536236378904 -15.652552471795106 3.2337954450289987 0.01618509051448741 -0.020999092316252733 0.005121172793888536 -0.018273324100659728 4.685156548433269 0.008671311122807272 12.42269162232036 -8.213189592753148 6.896880036616649 -0.036530575450122504 46.334155690202216 0.0367170315896186 -4.345254296621371 -14.781127448559205 -3.864254490366688 0.007458088312387613 -0.03458611844009254 0.010663636333950068 -0.02632279151492167 -10.71100755709683 -0.017322425463689173 
0.042769866695803654 0.037717712611597176 0.019891284750022796 0.037222522899850626 -0.018267743567527903 0.013297573684874817 -1.8531235207458645 0.9553799191222079 -1.0206062709255954 -0.8521071437770039 3.538617737556107 0.34435561779358687 -1.1472839977403524 -1.8936331636058956 -0.8553728522534385 0.048208115433714005 -0.22686517857329339 -0.8113806881822896 0.42993540457107005 12.141796508344374 -1.7416043994879329 0.20200860343445276 -0.44851636535081596 -5.479368829277967 0.7963957872028324 -15.660303236774974 -0.4671343437682361 -5.458849906438293 2.043805963775509 -15.81500045612211 69.96728465567571 -4.3699873342386555 4.406837834576629 31.399396776627334 9.572109823397605 89.5636668630332 20.390859538675933 -0.3664991657780386 -3.7048380359760347 4.557955130506208 -0.0927225856026188 -1.6264809714885127 -0.011090386134271633 0.020937601010379742 -56.26000926168941 0.019312247659196223 0.04505099441381527 -56.257447619162306 -38.75087767183118 0.03258579215022055 -0.00544776416122247 -0.023526024306318675 -0.001190327255213308 0.015755770443707486 -0.04704801958889572 0.005491247022323035 -0.02845159171919518 -36.657141894694 0.00993141476395791 0.008988561353363534 -0.033696429184722466 -0.02256350089784581 0.0217568792713065 0.03704137134539849 -0.010587530320956268 -0.018211108268920626 -19.77688612376441 -0.042374040234728017 -0.012216833711280978 0.03733995834800625 -0.004670868207843746 0.027921995742873112 -0.019857097546495648 -0.026495090096332583 0.003523143121489468 24.07176522443378 -0.03080459397152821 -0.03357267522603534 28.874712152128172 0.03805170124446147 -0.01685121793477432 28.881863746176492 -0.006119034322039009 -0.0020200449050211647 5.863544434220503 1.5885294669988497 13.785749164887058 -67.22478997300553 15.555631162885316 -5.945255497194402 3.6177363793255424 -5.184681915619176 -79.9929232995426 -11.721258734528687 -0.3384322220958081 -0.26820623914805564 -0.4792158663799956 0.06206997271983722 -8.148910690401294 -0.03841143137356129 0.0438117290900241 44.55076234842522 0.022391538000619188 0.033298434583061295 44.59804753326082 12.436048245866676 0.03530119534544531 0.0022713655749908566 0.010336973806276134 -0.026207654639600113 -0.04012665085295478 0.002686663769864965 -0.0049788977084137724 0.004159399743041636 11.097260344700565 0.020716497510603993 0.003436181153338646 0.011906489218107857 -0.04883679656668099 0.035727760556951794 -0.012383725519194632 0.00045563009304490533 0.029380503284335398 4.732664740485759 -0.013842006197200359 -0.04718658825368447 0.0358334549903032 -0.018400340586296176 0.013566483657976242 0.04630665265363165 0.028907472270630005 -0.001328937287715391 -5.594195639738229 0.003259431922995598 -0.02098858142527165 -6.698466704431112 0.027770449029093997 0.04583749303682364 -6.705949108527281 -0.020508392950705615 0.04059028820370182 -0.044547163479726794 0.03208253541919629 0.03683442730760699 8.036479625028525 3.4956458997103526 -19.248496803835394 -0.04757660910633534 10.402707896304005 0.027178172207690178 -5.573472593665875 -15.691921196079065 3.173924321639407 0.008800700210772427 0.01895291569401133 0.04453975725474425 0.020406536138388155 4.662939851721183 -0.04030912624358395 12.476797269038506 -8.25250669184424 6.903561741488593 -0.013624519971315587 46.3328643295808 0.02682790695868835 -4.343550386277439 -14.739658742367265 -3.8133356413113186 0.011479992957391093 0.047981992403637055 0.0489578022020576 -0.04364784759678327 -10.782855173610049 0.017619432389652533 
0.025651694892567484 -0.03630827343979132 0.01210231800757973 -0.00461876109040059 0.01732032718738737 0.03754594142785459 -2.0073862949329637 0.7527098594845932 -0.9793367426260738 -0.8713910899669338 3.5761595793352456 0.3388267085274349 -1.111188677808485 -2.0573750356811007 -0.956984567115084 -0.019936767243038077 -0.21004373679774313 -0.7842253233500085 0.2288090428887937 12.264308476828166 -1.3772509638154773 0.14367641051374985 -0.25042256950472835 -4.523685218721312 0.6293886235331191 -15.396785166917553 -0.3330124464267475 -5.483764349139734 2.0742614165900184 -15.715496448880998 69.73451644576961 -3.8740484185207364 4.398806359595466 31.32339571525781 9.362042024648089 89.87989643609218 20.579508753675963 -0.3923848714072487 -3.7739004123343163 4.560709614150641 -0.1710509301359435 -1.5621017164645352 -0.009965699372842224 0.044192278024276097 -56.23830116434551 0.008383221036714633 -0.0031616679730607626 -56.25133591921896 -38.765347944468765 -0.022896166573609933 -0.007831201910862961 -0.014642259463167523 0.04415393836016357 -0.0031166694218873405 0.027824423340724436 0.02559546420476567 -0.0005365168517164275 -36.68702968650455 -0.013384465126452194 -0.013633127843322605 0.004093681273887922 -0.042753780678007135 0.010927132146495922 0.03205132283546012 0.04617369178653048 0.030091344674246182 -19.723682159619283 -0.04777424024258089 0.03944154842002517 0.02327458524487887 0.030446345160044685 0.01646467500968945 0.008282676340417088 0.02486372201137268 0.025924485068431237 24.02341035040603 -0.006360972922699629 0.01440525197540868 28.86264626613936 -0.022330322886658198 -0.043333980929598115 28.9036542887242 0.04173098209924122 0.03885880042275046 6.404566758083351 1.6624712864474716 13.837096683142182 -66.93504255283216 13.974893219722023 -7.391959304418679 3.266926289616178 -5.259598339709608 -82.61330877565273 -10.36719634134924 -0.35273807785367667 -0.4224111698731508 -0.481547845214866 0.04776959967445299 -8.131367218550993 -0.032711486692116536 -0.024243789779997818 44.591212427326894 -0.014011380544006333 0.02831114666452908 44.5211540021362 12.459562207479307 -0.004997347879374379 -0.023775890373648047 0.023741372877484693 -0.019920538598053178 -0.040574887074252365 -0.0018142164818137447 -0.04224497250766256 0.018779272819660024 11.090567184054827 -0.004993063802426674 -0.02683843528383612 -0.022779779091469596 0.021882527692002298 -0.03644938206952946 0.012951843794874011 0.010334158161895868 -0.022633007719074727 4.725907927199465 -0.011110793803054927 -0.010331716103732092 -0.03246070605331537 0.012082404645652292 -0.0016011550117422204 -0.002556770122134922 -0.031118185956990056 0.04272983854618173 -5.600888040035907 0.026112257463621474 0.005568244297481405 -6.697407187629 -0.010124863767386982 -0.04650232104112229 -6.730034034647614 -0.035917082889504924 -0.03856244405233286 -0.009610274354451904 0.01996356530741116 0.012573310411463324 8.036596099890168 3.497035689577926 -19.246897244171517 0.023559671957086477 10.424093734187501 -0.013950255777611036 -5.611525703471183 -15.680052986806869 3.1558381140822096 -0.0026214687409403742 -0.019069815021840124 -0.008147623328726851 0.0088308051462487 4.6575283190624495 0.007364469824849661 12.450934263208538 -8.253255880972151 6.8715354200409005 -0.018116666946628685 46.40994909688632 0.02682789957839991 -4.297707595916805 -14.738899163166174 -3.858890582599945 0.031710510675589616 0.013571722796046964 0.017507597092469532 0.017495717491087914 -10.724528604939762 0.0121406732664881 
-0.0342487487067705 0.043955429773494384 0.01612271438951831 -0.005517043519098174 -0.042981371088046415 -0.0020904436294198617 -2.046539436676908 0.5851637664569543 -0.9202545802483716 -0.8680636879070762 3.5510535306505058 0.3738066821985164 -1.108802509513124 -2.0885024747729006 -1.1553845802303493 -0.03360767257979312 -0.1851698349160074 -0.8371069715043072 0.12037757365303622 12.480478495913276 -0.9995952052548981 0.17707743673904075 -0.04442865197528022 -3.676136011467233 0.5233732125092005 -15.080982861251627 -0.25086485197995895 -5.435365839873287 2.0214635337754725 -15.659885081429174 69.33389250025975 -3.514806321720761 4.595124225374762 30.857551504879787 8.801995452731877 91.0911886646066 20.662904373624382 -0.43355164431652743 -3.988304523727946 4.497545008853482 -0.11082171248361086 -1.555166416827285 -0.009250506693031622 0.03172408122377811 -56.21911215901549 0.04361990879714706 -0.015371008655754474 -56.26333984280528 -38.77061602190269 0.005474585901535622 0.03320742550802183 -0.04718746037816169 0.004078784247716893 -0.0164386991495308 -0.048614572550411086 0.003762727870379677 -0.04172320207897632 -36.70896003106047 0.008184238268375868 0.04791563705208312 0.011025727300155764 -0.040355417610423404 0.0032137971762924663 0.0040532470678602125 -0.029346423503563684 0.03267626994116258 -19.756252173946727 0.03925495594950465 -0.01092657458057401 0.004374530474909443 -0.033157877866423546 0.02951296569072332 0.013006737581062178 0.014724797111188969 -0.04858226570475672 24.075898139311747 -0.0011696560498607326 0.04278602505432046 28.866882238010557 -0.0014506339532072354 0.0006352729608621244 28.86465508618665 -0.037480078142779816 -0.024463007771640476 6.872262171501321 1.6814104991230574 13.85336297837038 -66.62528347385243 13.133170099642305 -8.89156350347633 3.9567450723481055 -6.063237150827091 -86.71949024333315 -8.953337872184083 -0.5785629526451928 -0.4011969791168773 -0.5194591741036919 0.05960774547145088 -8.077849891562572 -0.042692709897060685 -0.029117277767040376 44.59038500886093 -0.028218128927372105 0.017457949113071018 44.598771318842175 12.430544937615688 -0.048653555540951014 0.013300984761207644 0.020058201815285916 0.04266438191837862 -0.004863010889516639 0.024479113317232692 -0.029446326705822125 0.003840075365912921 11.12140424782509 -0.03487113939500353 0.02076222801607319 -0.0344544073825295 0.018220388211615958 0.005644830409210346 0.011344578391909712 0.03963168146939698 -0.011598937036576756 4.764689941954557 -0.0359400500509687 0.028201934273662882 0.03177617076364374 -0.02992886858968923 -0.013181675480096402 0.0285045269628727 0.013846773109597178 -0.005257477665106235 -5.5805592121588035 -0.022733715405560323 -0.035831513976521956 -6.705033593230455 -0.022717121508838863 0.02969896459015929 -6.7075151363875465 -0.02028718912140467 0.028831322881326397 0.04307501319555737 0.022838555053211324 0.04580952249903319 8.018016000313319 3.463040159717576 -19.24666154499029 0.03877036925729677 10.369352351673957 0.02445104481433361 -5.641209160102029 -15.621037735405812 3.210139974193024 0.010272977939087633 -0.003183140606428433 -0.041694676568922076 0.011464731687649984 4.677907175764201 -0.03842169747047385 12.501226839035482 -8.190164957504523 6.896813793589975 -0.00290707092710456 46.37869982750301 0.027169117515913714 -4.280347003423787 -14.771889709175976 -3.81997382433207 -0.049493643926961824 -0.02345879208168936 -0.022046126406425053 0.006170722778678491 -10.712810538917484 -0.005765673474132592 
